:FULLY-SPECIFIED
:FORCE-ALL-JOINTS-BE-3DOF
:DEGREES
883
root 4.06657 16.545 30.8054 -9.61461 22.8898 359.806
lfemur -20.0978 18.0359 -20.6687
ltibia 46.1276 0 0
lfoot -9.172 -14.9204 0
ltoes 19.3918 0 0
rfemur -46.3552 -6.94607 1.1512
rtibia 74.4655 0 0
rfoot 10.1445 -12.5621 0
rtoes 25.4823 0 0
lowerback 9.49252 -2.4516 -4.75987
upperback 2.69199 -3.6673 -1.3874
thorax -2.43824 -1.81142 1.52409
lowerneck -6.7908 -5.59177 -0.198084
upperneck 6.92398 -7.81759 4.31658
head 3.66542 -3.68673 1.04487
lclavicle 1.94377e-014 -8.11887e-015 0
lhumerus -42.6757 -30.4627 94.9914
lradius 58.7893 0 0
lwrist 17.2312 0 0
lhand 19.0748 10.1946 0
lfingers 7.12502 0 0
lthumb 43.5923 33.5758 0
rclavicle 1.94377e-014 -8.11887e-015 0
rhumerus -51.7701 6.95539 -76.512
rradius 88.3076 0 0
rwrist -3.51955 0 0
rhand 3.45082 -14.5287 0
rfingers 7.12502 0 0
rthumb 28.8379 -761.884 0
884
root 4.05591 16.541 30.8614 -9.14624 22.9948 359.817
lfemur -20.6567 18.6797 -20.5695
ltibia 46.6613 0 0
lfoot -9.476 -13.9432 0
ltoes 19.0925 0 0
rfemur -45.1439 -7.25491 1.04612
rtibia 74.969 0 0
rfoot 10.0089 -13.3433 0
rtoes 26.8763 0 0
lowerback 9.19497 -2.45333 -4.70699
upperback 2.56928 -3.65717 -1.40526
thorax -2.40024 -1.80588 1.47061
lowerneck -6.80618 -5.70268 -0.337344
upperneck 6.7966 -7.95207 4.37087
head 3.63594 -3.75689 1.0803
lclavicle 1.92185e-014 -7.29821e-015 0
lhumerus -43.1647 -30.8939 95.9028
lradius 58.9617 0 0
lwrist 16.8815 0 0
lhand 19.7008 10.5567 0
lfingers 7.12502 0 0
lthumb 44.1763 33.7203 0
rclavicle 1.92185e-014 -7.29821e-015 0
rhumerus -51.6927 7.59783 -78.1515
rradius 90.4691 0 0
rwrist -3.82076 0 0
rhand 4.43256 -13.6336 0
rfingers 7.12502 0 0
rthumb 29.7777 -760.857 0
885
root 4.04401 16.5366 30.9161 -8.67226 23.0849 359.827
lfemur -21.2079 19.3104 -20.4581
ltibia 47.1723 0 0
lfoot -9.78438 -12.9645 0
ltoes 18.7793 0 0
rfemur -43.923 -7.56134 0.943242
rtibia 75.4491 0 0
rfoot 9.85801 -14.1153 0
rtoes 28.2294 0 0
lowerback 8.89319 -2.45234 -4.6505
upperback 2.44524 -3.64327 -1.42447
thorax -2.36111 -1.79848 1.41362
lowerneck -6.82119 -5.8102 -0.473801
upperneck 6.66687 -8.08212 4.42391
head 3.60542 -3.82489 1.11507
lclavicle 1.89863e-014 -6.46194e-015 0
lhumerus -43.6585 -31.3216 96.8137
lradius 59.1307 0 0
lwrist 16.5365 0 0
lhand 20.3245 10.9203 0
lfingers 7.12502 0 0
lthumb 44.7578 33.8646 0
rclavicle 1.89863e-014 -6.46194e-015 0
rhumerus -51.5935 8.23194 -79.7664
rradius 92.5954 0 0
rwrist -4.12346 0 0
rhand 5.39331 -12.7564 0
rfingers 7.12502 0 0
rthumb 30.6973 -759.85 0
886
root 4.03088 16.5319 30.9696 -8.19438 23.1598 359.838
lfemur -21.7479 19.9255 -20.3349
ltibia 47.658 0 0
lfoot -10.0967 -11.9892 0
ltoes 18.4517 0 0
rfemur -42.6981 -7.86478 0.842031
rtibia 75.9049 0 0
rfoot 9.6924 -14.8747 0
rtoes 29.5357 0 0
lowerback 8.58825 -2.44884 -4.59078
upperback 2.32031 -3.62595 -1.44519
thorax -2.32102 -1.78941 1.35318
lowerneck -6.83579 -5.91385 -0.606896
upperneck 6.53529 -8.20713 4.47552
head 3.57399 -3.89042 1.14904
lclavicle 1.87415e-014 -5.61159e-015 0
lhumerus -44.1554 -31.7452 97.7211
lradius 59.2955 0 0
lwrist 16.1978 0 0
lhand 20.9451 11.2845 0
lfingers 7.12502 0 0
lthumb 45.336 34.0081 0
rclavicle 1.87415e-014 -5.61159e-015 0
rhumerus -51.4717 8.85266 -81.3472
rradius 94.677 0 0
rwrist -4.42684 0 0
rhand 6.32813 -11.9015 0
rfingers 7.12502 0 0
rthumb 31.5921 -758.868 0
887
root 4.01653 16.5268 31.0219 -7.71433 23.2191 359.85
lfemur -22.2733 20.5225 -20.2002
ltibia 48.1159 0 0
lfoot -10.4124 -11.022 0
ltoes 18.1091 0 0
rfemur -41.4753 -8.16469 0.741943
rtibia 76.3351 0 0
rfoot 9.51258 -15.6178 0
rtoes 30.789 0 0
lowerback 8.28121 -2.44307 -4.5282
upperback 2.19491 -3.60554 -1.46756
thorax -2.28013 -1.77881 1.28933
lowerneck -6.84999 -6.01313 -0.736068
upperneck 6.40239 -8.32649 4.52556
head 3.54177 -3.95316 1.1821
lclavicle 1.84843e-014 -4.74865e-015 0
lhumerus -44.6537 -32.1644 98.6222
lradius 59.4558 0 0
lwrist 15.867 0 0
lhand 21.5614 11.6487 0
lfingers 7.12502 0 0
lthumb 45.9099 34.1503 0
rclavicle 1.84843e-014 -4.74865e-015 0
rhumerus -51.3264 9.45496 -82.8841
rradius 96.7041 0 0
rwrist -4.73011 0 0
rhand 7.23212 -11.0733 0
rfingers 7.12502 0 0
rthumb 32.4573 -757.916 0
888
root 4.00097 16.5213 31.0732 -7.23382 23.2624 359.863
lfemur -22.7805 21.099 -20.0545
ltibia 48.5433 0 0
lfoot -10.7312 -10.0676 0
ltoes 17.7512 0 0
rfemur -40.2603 -8.46052 0.642437
rtibia 76.7386 0 0
rfoot 9.31909 -16.3411 0
rtoes 31.9833 0 0
lowerback 7.97313 -2.43522 -4.46313
upperback 2.06948 -3.58237 -1.49175
thorax -2.23863 -1.76688 1.22213
lowerneck -6.86375 -6.10754 -0.860756
upperneck 6.26869 -8.4396 4.57389
head 3.50891 -4.0128 1.21412
lclavicle 1.82153e-014 -3.87463e-015 0
lhumerus -45.1518 -32.5785 99.5142
lradius 59.6109 0 0
lwrist 15.5457 0 0
lhand 22.1727 12.0118 0
lfingers 7.12502 0 0
lthumb 46.4787 34.2906 0
rclavicle 1.82153e-014 -3.87463e-015 0
rhumerus -51.1569 10.0338 -84.3675
rradius 98.667 0 0
rwrist -5.03245 0 0
rhand 8.10034 -10.2762 0
rfingers 7.12502 0 0
rthumb 33.2881 -756.998 0
889
root 3.9842 16.5153 31.1235 -6.75458 23.2894 359.877
lfemur -23.2661 21.6523 -19.898
ltibia 48.9377 0 0
lfoot -11.0525 -9.13086 0
ltoes 17.3774 0 0
rfemur -39.059 -8.7517 0.542975
rtibia 77.1144 0 0
rfoot 9.11245 -17.041 0
rtoes 33.1125 0 0
lowerback 7.66508 -2.42552 -4.39594
upperback 1.94445 -3.55679 -1.51792
thorax -2.19669 -1.75378 1.15165
lowerneck -6.87706 -6.19658 -0.9804
upperneck 6.13469 -8.54586 4.62034
head 3.47552 -4.06902 1.245
lclavicle 1.79347e-014 -2.99103e-015 0
lhumerus -45.6479 -32.9872 100.394
lradius 59.7602 0 0
lwrist 15.2356 0 0
lhand 22.7779 12.3733 0
lfingers 7.12502 0 0
lthumb 47.0415 34.4284 0
rclavicle 1.79347e-014 -2.99103e-015 0
rhumerus -50.9623 10.5842 -85.7876
rradius 100.556 0 0
rwrist -5.33307 0 0
rhand 8.92789 -9.51473 0
rfingers 7.12502 0 0
rthumb 34.08 -756.119 0
890
root 3.96623 16.5088 31.1728 -6.27833 23.2995 359.892
lfemur -23.7266 22.18 -19.7312
ltibia 49.2965 0 0
lfoot -11.3759 -8.2164 0
ltoes 16.9872 0 0
rfemur -37.8772 -9.03768 0.443014
rtibia 77.4614 0 0
rfoot 8.89319 -17.714 0
rtoes 34.1706 0 0
lowerback 7.35812 -2.41419 -4.327
upperback 1.82026 -3.52914 -1.54623
thorax -2.15446 -1.73969 1.07793
lowerneck -6.88991 -6.27975 -1.09444
upperneck 6.00093 -8.64467 4.66476
head 3.44173 -4.1215 1.2746
lclavicle 1.76428e-014 -2.09937e-015 0
lhumerus -46.1403 -33.3899 101.259
lradius 59.9033 0 0
lwrist 14.9382 0 0
lhand 23.3761 12.7323 0
lfingers 7.12502 0 0
lthumb 47.5973 34.5633 0
rclavicle 1.76428e-014 -2.09937e-015 0
rhumerus -50.7418 11.101 -87.1349
rradius 102.362 0 0
rwrist -5.63117 0 0
rhand 9.70983 -8.79327 0
rfingers 7.12502 0 0
rthumb 34.828 -755.285 0
891
root 3.94707 16.5018 31.2213 -5.80678 23.2926 359.91
lfemur -24.1586 22.6797 -19.5544
ltibia 49.6172 0 0
lfoot -11.7009 -7.32901 0
ltoes 16.5801 0 0
rfemur -36.7208 -9.31792 0.342014
rtibia 77.7784 0 0
rfoot 8.66186 -18.3566 0
rtoes 35.1514 0 0
lowerback 7.0533 -2.40145 -4.25669
upperback 1.69733 -3.49974 -1.57683
thorax -2.11214 -1.72477 1.00104
lowerneck -6.90227 -6.35657 -1.20231
upperneck 5.86792 -8.73541 4.70701
head 3.40768 -4.16994 1.30281
lclavicle 1.73402e-014 -1.20113e-015 0
lhumerus -46.6274 -33.7861 102.107
lradius 60.0394 0 0
lwrist 14.6552 0 0
lhand 23.9663 13.0879 0
lfingers 7.12502 0 0
lthumb 48.1452 34.6946 0
rclavicle 1.73402e-014 -1.20113e-015 0
rhumerus -50.4946 11.5792 -88.3997
rradius 104.074 0 0
rwrist -5.92594 0 0
rhand 10.4413 -8.11627 0
rfingers 7.12502 0 0
rthumb 35.5277 -754.501 0
892
root 3.92673 16.4944 31.269 -5.34166 23.2681 359.931
lfemur -24.5586 23.1486 -19.368
ltibia 49.897 0 0
lfoot -12.027 -6.47343 0
ltoes 16.1555 0 0
rfemur -35.5957 -9.59184 0.239436
rtibia 78.0643 0 0
rfoot 8.41898 -18.9651 0
rtoes 36.0489 0 0
lowerback 6.7517 -2.38751 -4.18537
upperback 1.5761 -3.46895 -1.60988
thorax -2.06988 -1.7092 0.921022
lowerneck -6.91412 -6.42653 -1.30346
upperneck 5.73616 -8.8175 4.74693
head 3.37349 -4.21401 1.3295
lclavicle 1.7027e-014 -2.97842e-016 0
lhumerus -47.1074 -34.1755 102.934
lradius 60.1681 0 0
lwrist 14.3881 0 0
lhand 24.5476 13.4394 0
lfingers 7.12502 0 0
lthumb 48.6844 34.8219 0
rclavicle 1.7027e-014 -2.97842e-016 0
rhumerus -50.2198 12.0138 -89.5722
rradius 105.684 0 0
rwrist -6.21658 0 0
rhand 11.1173 -7.48815 0
rfingers 7.12502 0 0
rthumb 36.1741 -753.771 0
893
root 3.9052 16.4863 31.316 -4.88468 23.2256 359.954
lfemur -24.9231 23.5845 -19.1724
ltibia 50.1335 0 0
lfoot -12.3539 -5.65439 0
ltoes 15.7131 0 0
rfemur -34.5076 -9.85889 0.134737
rtibia 78.3181 0 0
rfoot 8.16509 -19.5361 0
rtoes 36.8571 0 0
lowerback 6.45438 -2.37258 -4.11341
upperback 1.45701 -3.43709 -1.64554
thorax -2.02786 -1.69315 0.837941
lowerneck -6.92546 -6.48914 -1.39732
upperneck 5.6062 -8.89031 4.78438
head 3.3393 -4.2534 1.35457
lclavicle 1.67038e-014 6.09002e-016 0
lhumerus -47.5786 -34.5574 103.738
lradius 60.2889 0 0
lwrist 14.1386 0 0
lhand 25.119 13.786 0
lfingers 7.12502 0 0
lthumb 49.2139 34.9444 0
rclavicle 1.67038e-014 6.09002e-016 0
rhumerus -49.9166 12.3998 -90.6429
rradius 107.18 0 0
rwrist -6.5023 0 0
rhand 11.7329 -6.91335 0
rfingers 7.12502 0 0
rthumb 36.7627 -753.1 0
